<?xml version="1.0" encoding="UTF-8"?>
<svg xmlns="http://www.w3.org/2000/svg" viewBox="0 0 64.25 65.29">
  <defs>
    <style>
      .cls-1 {
        fill: #6d4cf3;
        stroke-width: 0px;
      }
    </style>
  </defs>
  <g>
    <path class="cls-1" d="m47.25,20.64l-8.37.07h-1.67s-20.11.19-20.11.19c-.24,0-.54-.27-.54-.65l-.07-7.09c0-.38.3-.6.54-.61l20.18-.17h1.67s8.29-.09,8.29-.09l.07,8.34Z"/>
    <path class="cls-1" d="m26.4,0v10.11h-15.73v12.62h14.06v10.11h-14.06v22.93h-.41L.46,38.8l-.46-.79V.62c0-.28.35-.62.76-.62h25.64Z"/>
    <path class="cls-1" d="m37.21,22.73l-.04,41.81c0,.33-.35.75-.84.75h-8.99c-.49,0-.77-.41-.77-.75l-.17-41.81h10.81Z"/>
    <path class="cls-1" d="m63.48.62v37.85l-.19.33-9.8,16.97h-.68v-22.93h-13.93v-10.11h13.93v-12.62h-15.82V0h25.72c.42,0,.77.35.77.62Z"/>
  </g>
</svg>
